<?xml version="1.0" encoding="UTF-8" standalone="no"?>
<!-- Created with Inkscape (http://www.inkscape.org/) -->

<svg
   xmlns:dc="http://purl.org/dc/elements/1.1/"
   xmlns:cc="http://creativecommons.org/ns#"
   xmlns:rdf="http://www.w3.org/1999/02/22-rdf-syntax-ns#"
   xmlns:svg="http://www.w3.org/2000/svg"
   xmlns="http://www.w3.org/2000/svg"
   xmlns:sodipodi="http://sodipodi.sourceforge.net/DTD/sodipodi-0.dtd"
   xmlns:inkscape="http://www.inkscape.org/namespaces/inkscape"
   width="160.65094mm"
   height="160.65417mm"
   viewBox="0 0 160.65093 160.65418"
   version="1.1"
   id="svg8"
   inkscape:export-filename="/media/sira/OOT/www/themes/Annie/source/img/logo.png"
   inkscape:export-xdpi="9.4862146"
   inkscape:export-ydpi="9.4862146"
   inkscape:version="0.92.3 (2405546, 2018-03-11)"
   sodipodi:docname="logo.svg">
  <defs
     id="defs2" />
  <sodipodi:namedview
     id="base"
     pagecolor="#ffffff"
     bordercolor="#666666"
     borderopacity="1.0"
     inkscape:pageopacity="0.0"
     inkscape:pageshadow="2"
     inkscape:zoom="0.35"
     inkscape:cx="-222.17773"
     inkscape:cy="629.86375"
     inkscape:document-units="mm"
     inkscape:current-layer="layer1"
     showgrid="false"
     inkscape:measure-start="0,0"
     inkscape:measure-end="0,0"
     showguides="false"
     fit-margin-top="0"
     fit-margin-left="0"
     fit-margin-right="0"
     fit-margin-bottom="0"
     inkscape:window-width="1244"
     inkscape:window-height="773"
     inkscape:window-x="36"
     inkscape:window-y="27"
     inkscape:window-maximized="1" />
  <metadata
     id="metadata5">
    <rdf:RDF>
      <cc:Work
         rdf:about="">
        <dc:format>image/svg+xml</dc:format>
        <dc:type
           rdf:resource="http://purl.org/dc/dcmitype/StillImage" />
        <dc:title />
      </cc:Work>
    </rdf:RDF>
  </metadata>
  <g
     inkscape:groupmode="layer"
     id="layer2"
     inkscape:label="Layer 2"
     style="display:none"
     sodipodi:insensitive="true"
     transform="translate(-2.308509,-2.5595261)">
    <rect
       transform="translate(131.55099,-196.47379)"
       style="fill:#eef3f6;fill-rule:evenodd;stroke-width:0.26458332"
       id="rect817"
       width="164.79761"
       height="164.79761"
       x="-131.55099"
       y="196.47379" />
  </g>
  <g
     inkscape:label="Layer 1"
     inkscape:groupmode="layer"
     id="layer1"
     transform="translate(129.24248,-199.03332)">
    <g
       id="g857"
       style="fill:#f0c514;fill-opacity:1"
       transform="matrix(0.97724903,0,0,0.97724903,-0.88309367,6.8340814)">
      <path
         inkscape:connector-curvature="0"
         id="path841"
         d="m -49.15245,204.01799 -11.69851,20.26284 c 3.899699,2.2515 7.799319,4.50315 11.699028,6.75463 1.333405,0.76983 2.666865,1.53958 4.000273,2.30942 2.367134,1.36665 4.734239,2.73336 7.101374,4.10001 l 6.928776,4.00027 c 1.788887,1.0328 3.577711,2.06572 5.366599,3.09852 l -1.789038,-3.09852 -2.309421,-4.00027 -5.599658,-9.69916 -2.000395,-3.46438 z"
         style="opacity:1;fill:#f0c514;fill-opacity:1;stroke:none;stroke-width:1;stroke-linecap:round;stroke-miterlimit:4;stroke-dasharray:none" />
      <path
         inkscape:connector-curvature="0"
         id="path827"
         d="m -90.579895,275.77226 -1.789554,3.09956 -2.309937,4.0013 -5.599654,9.69864 -1.99988,3.46438 -11.69903,20.26335 h 23.398055 v -13.50872 -4.61936 -8.19796 -8.00208 z"
         style="opacity:1;fill:#f0c514;fill-opacity:1;stroke:none;stroke-width:1;stroke-linecap:round;stroke-miterlimit:4;stroke-dasharray:none" />
      <path
         inkscape:connector-curvature="0"
         id="path825"
         d="m 3.9745397,296.03667 c -3.89948636,2.25139 -7.7990154,4.50273 -11.6985106,6.7541 -1.3336059,0.76996 -2.6671821,1.53998 -4.0007891,2.30994 -2.366462,1.36626 -4.732846,2.7327 -7.099308,4.09898 -2.31025,1.33382 -4.620596,2.66747 -6.930842,4.00129 -1.788885,1.0328 -3.577717,2.06571 -5.366599,3.09851 h 3.577561 4.620905 11.198283 4.0007891 23.3975379 z"
         style="opacity:1;fill:#f0c514;fill-opacity:1;stroke:none;stroke-width:1;stroke-linecap:round;stroke-miterlimit:4;stroke-dasharray:none" />
    </g>
    <g
       id="g872"
       style="fill:#e84c3d;fill-opacity:1"
       transform="matrix(0.97724903,0,0,0.97724903,-0.88309367,6.8340814)">
      <path
         inkscape:connector-curvature="0"
         id="path839"
         d="m -86.579623,214.04631 v 23.39858 h 13.509255 4.618839 8.198466 8.000545 6.200653 l -3.100585,-1.79008 -4.000273,-2.30942 -9.698633,-5.59966 -3.464388,-2.00039 z"
         style="opacity:1;fill:#e84c3d;fill-opacity:1;stroke:none;stroke-width:1;stroke-linecap:round;stroke-miterlimit:4;stroke-dasharray:none" />
      <path
         inkscape:connector-curvature="0"
         id="path829"
         d="m 5.4395667,267.17383 c -2.2513913,3.89948 -4.50273323,7.79902 -6.7541097,11.6985 -0.7700764,1.33381 -1.5403782,2.6675 -2.3104533,4.00132 -1.3663501,2.36659 -2.7326269,4.73321 -4.0989746,7.0998 -1.3336254,2.30992 -2.6671641,4.61992 -4.0007891,6.92981 -1.032807,1.7889 -2.065712,3.57772 -3.098519,5.36662 l 3.098519,-1.78906 4.0007891,-2.30992 9.698116,-5.59914 3.4654216,-2.00091 20.2628453,-11.69852 z"
         style="opacity:1;fill:#e84c3d;fill-opacity:1;stroke:none;stroke-width:1;stroke-linecap:round;stroke-miterlimit:4;stroke-dasharray:none" />
      <path
         inkscape:connector-curvature="0"
         id="path823"
         d="m -86.579623,296.90172 v 3.5791 4.61936 11.19931 4.00079 23.39806 l 20.263879,-11.69903 c -2.251508,-3.89967 -4.503128,-7.79933 -6.754624,-11.69903 -0.769961,-1.3336 -1.539978,-2.66718 -2.309937,-4.00079 -1.366353,-2.36656 -2.732624,-4.73324 -4.098975,-7.0998 -1.333437,-2.3096 -2.666839,-4.6192 -4.000273,-6.92878 -1.033309,-1.78974 -2.06676,-3.57944 -3.10007,-5.36919 z"
         style="opacity:1;fill:#e84c3d;fill-opacity:1;stroke:none;stroke-width:1;stroke-linecap:round;stroke-miterlimit:4;stroke-dasharray:none" />
    </g>
    <g
       id="g867"
       style="fill:#34495e;fill-opacity:1"
       transform="matrix(0.97724903,0,0,0.97724903,-0.88309367,6.8340814)">
      <path
         inkscape:connector-curvature="0"
         id="path835"
         d="m -113.97795,241.44516 11.69903,20.26336 c 3.899706,-2.25151 7.799308,-4.50314 11.699025,-6.75463 1.33341,-0.76984 2.666862,-1.53958 4.000272,-2.30942 2.366807,-1.36646 4.733536,-2.73302 7.100343,-4.09949 2.309595,-1.33343 4.61918,-2.66684 6.928776,-4.00027 1.789557,-1.03319 3.579108,-2.06636 5.368665,-3.09955 h -3.579111 -4.618839 -11.199834 -4.000272 z"
         style="opacity:1;fill:#34495e;fill-opacity:1;stroke:none;stroke-width:1;stroke-linecap:round;stroke-miterlimit:4;stroke-dasharray:none" />
      <path
         inkscape:connector-curvature="0"
         id="path833"
         d="m -7.7239709,241.44516 v 13.50873 4.61988 8.19794 8.00211 6.19702 l 1.7890381,-3.09851 2.3099365,-4.0013 5.5991414,-9.69811 2.0003946,-3.46492 11.6990273,-20.26284 z"
         style="opacity:1;fill:#34495e;fill-opacity:1;stroke:none;stroke-width:1;stroke-linecap:round;stroke-miterlimit:4;stroke-dasharray:none" />
      <path
         inkscape:connector-curvature="0"
         id="path821"
         d="m -72.549988,313.20045 1.789038,3.09904 2.309937,4.00079 5.599657,9.69915 2.000396,3.4649 11.69851,20.26285 11.699028,-20.26335 c -3.899488,-2.25139 -7.799015,-4.50273 -11.69851,-6.75412 -1.333735,-0.77002 -2.667571,-1.5399 -4.001307,-2.30992 -2.366666,-1.36639 -4.733157,-2.73312 -7.099824,-4.09951 -2.309788,-1.33355 -4.619505,-2.66724 -6.929294,-4.00079 -1.789216,-1.03299 -3.578416,-2.06602 -5.367631,-3.09904 z"
         style="opacity:1;fill:#34495e;fill-opacity:1;stroke:none;stroke-width:1;stroke-linecap:round;stroke-miterlimit:4;stroke-dasharray:none" />
    </g>
    <g
       id="g862"
       style="fill:#1ab99b;fill-opacity:1"
       transform="matrix(0.97724903,0,0,0.97724903,-0.88309367,6.8340814)">
      <path
         inkscape:connector-curvature="0"
         id="path837"
         d="m -11.72476,214.04631 -20.263363,11.69903 c 2.251628,3.8999 4.503531,7.79964 6.755144,11.69955 0.769841,1.3334 1.53958,2.66686 2.309419,4.00027 1.366351,2.36659 2.732627,4.73323 4.098975,7.09982 1.333551,2.30979 2.667239,4.61951 4.000789,6.9293 1.032999,1.78921 2.066037,3.57842 3.099036,5.36762 v -3.57807 -4.61987 -11.1988 -4.00027 z"
         style="opacity:1;fill:#1ab99b;fill-opacity:1;stroke:none;stroke-width:1;stroke-linecap:round;stroke-miterlimit:4;stroke-dasharray:none" />
      <path
         inkscape:connector-curvature="0"
         id="path831"
         d="m -83.479553,255.47376 -3.10007,1.79007 -4.000272,2.30942 -9.699145,5.59967 -3.46439,2.00038 -20.26336,11.69903 20.26336,11.69903 c 2.25146,-3.89962 4.502664,-7.79939 6.754107,-11.69903 0.769956,-1.33361 1.539984,-2.66719 2.309937,-4.00079 1.36639,-2.36668 2.733106,-4.73316 4.099491,-7.09983 1.333431,-2.30958 2.666844,-4.61918 4.000272,-6.92877 1.033307,-1.78976 2.066764,-3.57942 3.10007,-5.36918 z"
         style="opacity:1;fill:#1ab99b;fill-opacity:1;stroke:none;stroke-width:1;stroke-linecap:round;stroke-miterlimit:4;stroke-dasharray:none" />
      <path
         inkscape:connector-curvature="0"
         id="path1171"
         d="m -52.251486,320.30028 3.099036,1.78956 4.001306,2.30995 9.698117,5.59914 3.46542,2.00091 20.262847,11.6985 v -23.39806 h -13.508219 -4.62039 -8.197432 -8.002095 z"
         style="opacity:1;fill:#1ab99b;fill-opacity:1;stroke:none;stroke-width:1;stroke-linecap:round;stroke-miterlimit:4;stroke-dasharray:none" />
    </g>
  </g>
</svg>
